<?xml version="1.0" encoding="utf-8"?>
<!-- Generator: Adobe Illustrator 26.2.1, SVG Export Plug-In . SVG Version: 6.00 Build 0)  -->
<svg version="1.1" id="Layer_1" xmlns="http://www.w3.org/2000/svg" xmlns:xlink="http://www.w3.org/1999/xlink" x="0px" y="0px"
	 viewBox="0 0 50 50" style="enable-background:new 0 0 50 50;" xml:space="preserve">
<style type="text/css">
	.st0{fill:#085A00;}
	.st1{fill:none;stroke:#085A00;stroke-miterlimit:10;}
	.st2{fill-rule:evenodd;clip-rule:evenodd;fill:#085A00;}
</style>
<g>
	<ellipse class="st0" cx="13.5" cy="24.5" rx="8" ry="6"/>
	<path class="st0" d="M13.5,19c4.1,0,7.5,2.5,7.5,5.5S17.6,30,13.5,30S6,27.5,6,24.5S9.4,19,13.5,19 M13.5,18C8.8,18,5,20.9,5,24.5
		S8.8,31,13.5,31s8.5-2.9,8.5-6.5S18.2,18,13.5,18L13.5,18z"/>
</g>
<g>
	<ellipse class="st0" cx="36.5" cy="25.5" rx="7" ry="5"/>
	<path class="st0" d="M36.5,21c3.6,0,6.5,2,6.5,4.5S40.1,30,36.5,30S30,28,30,25.5S32.9,21,36.5,21 M36.5,20c-4.1,0-7.5,2.5-7.5,5.5
		s3.4,5.5,7.5,5.5s7.5-2.5,7.5-5.5S40.6,20,36.5,20L36.5,20z"/>
</g>
<g>
	<ellipse class="st0" cx="31" cy="18.5" rx="5.5" ry="4"/>
	<path class="st0" d="M31,15c2.7,0,5,1.6,5,3.5S33.7,22,31,22s-5-1.6-5-3.5S28.3,15,31,15 M31,14c-3.3,0-6,2-6,4.5s2.7,4.5,6,4.5
		s6-2,6-4.5S34.3,14,31,14L31,14z"/>
</g>
<g>
	<ellipse class="st0" cx="19" cy="15.5" rx="8.5" ry="6"/>
	<path class="st0" d="M19,10c4.4,0,8,2.5,8,5.5S23.4,21,19,21s-8-2.5-8-5.5S14.6,10,19,10 M19,9c-5,0-9,2.9-9,6.5s4,6.5,9,6.5
		s9-2.9,9-6.5S24,9,19,9L19,9z"/>
</g>
<g>
	<line class="st1" x1="36.5" y1="30.5" x2="13.5" y2="30.5"/>
	<line class="st2" x1="36.5" y1="30.5" x2="13.5" y2="30.5"/>
</g>
<g>
	<rect x="16.5" y="19.5" class="st0" width="16" height="10"/>
	<path class="st0" d="M32,20v9H17v-9H32 M33,19H16v11h17V19L33,19z"/>
</g>
</svg>
