<?xml version="1.0" encoding="utf-8"?>
<!-- Generator: Adobe Illustrator 26.2.1, SVG Export Plug-In . SVG Version: 6.00 Build 0)  -->
<svg version="1.1" id="Layer_1" xmlns="http://www.w3.org/2000/svg" xmlns:xlink="http://www.w3.org/1999/xlink" x="0px" y="0px"
	 viewBox="0 0 512 512" style="enable-background:new 0 0 512 512;" xml:space="preserve">
<style type="text/css">
	.st0{fill:#085A00;}
</style>
<path class="st0" d="M180.2,243.1c4.8,20.8-18,37.1-36.1,25.7l-24.3-15.2L68.9,335c-13.3,21.3,2,49,27.2,49h32c17.6,0,32,14.3,32,32
	s-14.3,32-32,32H96.2c-75.4,0-121.3-82.8-81.5-146.8l50.8-81.4l-24.4-15.3c-18.1-11.4-13.5-39,7.3-43.8l91.4-21.1
	c8.6-1.9,17.3,3.3,19.3,12.1L180.2,243.1z M283.1,79l41.2,66.1l-24.2,15.1c-18.2,11.3-13.6,38.9,7.3,43.8l91.4,21.1
	c8.6,2,17.2-3.4,19.2-12l21-91.4c4.8-20.8-18-37-36.1-25.8l-24.4,15.2l-41.2-66C299.8-15,212.2-15,174.6,45.1l-7.4,11.8
	c-9.3,14.8-4.7,34.7,10.1,44c14.9,9.4,34.8,4.9,44.1-10l7.4-11.9C241.6,58.6,270.9,59.3,283.1,79z M497.3,301.3l-17-27.3
	c-9.3-15-29.1-19.6-44-10.2c-14.9,9.3-19.5,29.1-10.2,44.1l17,27.1c13.4,21.3-2,49-27.1,49h-96l0-28.7c0-21.4-25.9-32.1-41-17
	l-66.4,66.4c-6.2,6.2-6.2,16.4,0,22.6l66.4,66.3c15.1,15.1,41,4.4,41-17l0-28.7h95.9C491.2,448.1,537.2,365.2,497.3,301.3z"/>
</svg>
