<?xml version="1.0" encoding="utf-8"?>
<!-- Generator: Adobe Illustrator 26.2.1, SVG Export Plug-In . SVG Version: 6.00 Build 0)  -->
<svg version="1.1" id="Layer_1" xmlns="http://www.w3.org/2000/svg" xmlns:xlink="http://www.w3.org/1999/xlink" x="0px" y="0px"
	 viewBox="0 0 512 512" style="enable-background:new 0 0 512 512;" xml:space="preserve">
<style type="text/css">
	.st0{fill:#085A00;}
</style>
<path class="st0" d="M475.2,197c-5-4.9-10.4-9.5-15.9-13.4c-4.8-2.6-9.5-5.4-14.3-8.2c-2.7-1.1-5.4-2.2-8.2-3
	c-7.5-2.4-15.6-4.4-22.7-7.9c-3.6-0.7-7.1-1.5-10.7-2.2c-1.6-0.3-3.1-0.7-4.7-1.1c-7.7-0.6-15.4-1.2-23.2-1.5
	c-8.9,0.7-17.7,2.4-26.3,4.9c6.1-21.3,6.6-43.8,1.4-65.3l0.4-0.4c-1.7-8.1-4.4-16.1-7.5-23.9c-1.1-1.7-2-3.5-2.7-5.3
	c-0.8-1.5-1.7-3-2.6-4.5c-2.6-4.4-5.9-8.4-8.8-12.6l-0.4,0.4c-3.7-5-7.8-9.8-12.3-14.3L294.2,16l-22.7,22.6
	c-37.5,37.5-37.5,98.3,0,135.8l10.4,10.4l-30.4,30.5c-3.4-27.4-16.4-53.9-37.4-74.8l-21.8-22.7l-22.6,22.7
	c-37.5,37.4-37.5,98.2,0,135.7l10.4,10.4l-30.4,30.5c-3.4-27.4-15.6-53.8-36.6-74.8l-22.6-22.7l-22.6,22.7
	c-37.5,37.5-37.5,98.3,0,135.7l10.4,10.5L9.4,457.4c-12.5,12.5-12.5,32.7,0,45.2c12.5,12.5,32.8,12.5,45.3,0l68.9-68.9l12.3,12.2
	c37.5,37.5,98.2,37.5,135.7,0l22.7-22.6l-22.7-22.6c-21.8-21.9-50.4-34.2-78-36.9l31.9-31.9l12.2,12.2c37.5,37.5,98.3,37.5,135.8,0
	l21.7-22.6l-21.7-22.7c-21.9-21.8-49.6-34.1-78.1-37.7l31.9-31l12.2,12.2c37.5,37.5,98.3,37.5,135.8,0l22.6-22.7L475.2,197z"/>
<path class="st0" d="M488.5,46.2c-0.3-4.3-1-8.5-1.9-12.6c-9.3,0.1-18.5,0.7-27.6,1.8c-10.3,1.3-20.4,3.6-30.6,5.5
	c-5.8,1.9-11.4,4.2-16.8,6.9c-9.9,6.5-19.9,14.5-29.7,23.8c-0.5,0.5-1,1-1.6,1.5c-2.4,3.7-4.5,7.6-6.3,11.6
	c-0.9,2.2-1.8,4.4-2.8,6.6c-3.9,18.4-4.6,37.4-5.2,56.5c4.6,0.8,9.3,1.3,14,1.8c10.9,0,21.9-0.2,32.7-1.7c12-1.6,23.2-6,34.9-8.8
	c7.5-4.7,14.2-10.7,19.8-17.6c1.5-1.9,2.9-3.8,4.3-5.8c5.8-8.6,10.2-18.3,12.9-28.6c2.1-8.3,3.6-17.6,4-26.9
	C488.6,55.4,488.5,50.8,488.5,46.2z"/>
</svg>
